<svg width="24" height="24" viewBox="0 0 22 22" fill="none" xmlns="http://www.w3.org/2000/svg">
<path opacity="0.5" d="M0.75 10.75C0.75 6.036 0.75 3.679 2.214 2.214C3.68 0.75 6.036 0.75 10.75 0.75C15.464 0.75 17.821 0.75 19.285 2.214C20.75 3.68 20.75 6.036 20.75 10.75" stroke="#A5C16E" stroke-width="1.5"/>
<path d="M0.75 12.75C0.75 9.95 0.75 8.55 1.295 7.48C1.77436 6.53923 2.53923 5.77436 3.48 5.295C4.55 4.75 5.95 4.75 8.75 4.75H12.75C15.55 4.75 16.95 4.75 18.02 5.295C18.9608 5.77436 19.7256 6.53923 20.205 7.48C20.75 8.55 20.75 9.95 20.75 12.75C20.75 15.55 20.75 16.95 20.205 18.02C19.7256 18.9608 18.9608 19.7256 18.02 20.205C16.95 20.75 15.55 20.75 12.75 20.75H8.75C5.95 20.75 4.55 20.75 3.48 20.205C2.53923 19.7256 1.77436 18.9608 1.295 18.02C0.75 16.95 0.75 15.55 0.75 12.75Z" stroke="#A5C16E" stroke-width="1.5"/>
<path d="M10.75 9.75V15.75M10.75 15.75L13.25 13.25M10.75 15.75L8.25 13.25" stroke="#A5C16E" stroke-width="1.5" stroke-linecap="round" stroke-linejoin="round"/>
</svg>
